<svg id="_ÎÓÈ_1" data-name="—ÎÓÈ_1" xmlns="http://www.w3.org/2000/svg" viewBox="0 0 100 100"><defs><style>.cls-1,.cls-2{fill:#412b6d;}.cls-1{fill-rule:evenodd;}</style></defs><title>9stacks_purple</title><path class="cls-1" d="M45.18,95.32,59.88,65.6C62.4,60.49,65,55.41,67.41,50.25c5.15-10.92.88-22.7-9.73-27.11A19.55,19.55,0,0,0,31.81,34.37c-4.13,10.8,1.36,21.89,12.77,25.83.67.23,1.3.57,2.28,1-2.58,5.15-5,10.06-7.74,15.42a36.48,36.48,0,0,1-22.44-20.2A36.88,36.88,0,0,1,24.1,15.55C34.51,5,51.06,1.66,64.48,7.33a35.47,35.47,0,0,1,22,35c-.39,5.81-2.39,11.76-4.77,17.15C76.83,70.49,71.16,81.1,66,91.92c-1.18,2.47-2.6,3.61-5.46,3.47-4.79-.24-9.59-.07-15.33-.07"/><rect class="cls-2" x="42.66" y="49.34" width="15.54" height="0.92"/><rect class="cls-2" x="41.34" y="47.09" width="15.52" height="0.92"/><rect class="cls-2" x="39.76" y="44.73" width="15.54" height="0.92"/><rect class="cls-2" x="41.33" y="42.46" width="15.53" height="0.92"/><rect class="cls-2" x="44.71" y="40.1" width="15.53" height="0.92"/><rect class="cls-2" x="42.99" y="37.75" width="15.53" height="0.92"/><rect class="cls-2" x="41.51" y="35.48" width="15.53" height="0.92"/><rect class="cls-2" x="40.43" y="33.12" width="15.53" height="0.92"/><rect class="cls-2" x="42.66" y="30.85" width="15.54" height="0.92"/></svg>